<?xml version="1.0" encoding="UTF-8" standalone="no"?>
<!-- Created with Inkscape (http://www.inkscape.org/) -->

<svg
   width="44.693085"
   height="18.00174"
   viewBox="0 0 11.825045 4.7629602"
   version="1.1"
   id="svg1"
   inkscape:version="1.4.3 (0d15f75, 2025-12-25)"
   sodipodi:docname="heal.svg"
   xml:space="preserve"
   inkscape:export-filename="mm_shop.png"
   inkscape:export-xdpi="96"
   inkscape:export-ydpi="96"
   xmlns:inkscape="http://www.inkscape.org/namespaces/inkscape"
   xmlns:sodipodi="http://sodipodi.sourceforge.net/DTD/sodipodi-0.dtd"
   xmlns="http://www.w3.org/2000/svg"
   xmlns:svg="http://www.w3.org/2000/svg"><sodipodi:namedview
     id="namedview1"
     pagecolor="#d4d4d4"
     bordercolor="#000000"
     borderopacity="0.25"
     inkscape:showpageshadow="2"
     inkscape:pageopacity="0.0"
     inkscape:pagecheckerboard="0"
     inkscape:deskcolor="#d1d1d1"
     inkscape:document-units="px"
     inkscape:zoom="8.1941055"
     inkscape:cx="11.837778"
     inkscape:cy="12.020836"
     inkscape:window-width="1920"
     inkscape:window-height="1009"
     inkscape:window-x="-8"
     inkscape:window-y="-8"
     inkscape:window-maximized="1"
     inkscape:current-layer="layer1"
     showgrid="false"><inkscape:page
       x="0"
       y="0"
       width="11.825045"
       height="4.7629604"
       id="page2"
       margin="0"
       bleed="0" /></sodipodi:namedview><defs
     id="defs1"><rect
       x="516.38666"
       y="338.96506"
       width="384.52859"
       height="185.01553"
       id="rect33" /></defs><g
     inkscape:label="Layer 1"
     inkscape:groupmode="layer"
     id="layer1"
     transform="translate(-106.59193,-76.759314)"><path
       stroke="none"
       fill="#ffffff"
       d="m 117.94662,77.235513 q 0.47035,0.470342 0.47035,1.143112 0,0.660862 -0.47035,1.137158 l -0.005,0.006 -0.005,0.006 -0.2322,0.19052 -2.0719,1.738483 q -0.0833,0.06549 -0.1905,0.06549 -0.10125,0 -0.17862,-0.06549 l -2.07191,-1.738485 q -0.12519,-0.08335 -0.22636,-0.190519 l -0.0123,-0.0119 q -0.4882,-0.476297 -0.4882,-1.137159 0,-0.67277 0.4882,-1.143112 0.47034,-0.476297 1.14311,-0.476297 0.67874,0 1.16098,0.476297 l 0.19051,0.220287 0.19649,-0.220287 q 0.47034,-0.476297 1.1431,-0.476297 0.67873,0 1.16098,0.476297"
       id="path17"
       style="fill:#ffffff;fill-opacity:1;stroke-width:0.264583" /><path
       style="font-weight:800;font-size:85.3333px;font-family:'Bricolage Grotesque';-inkscape-font-specification:'Bricolage Grotesque Ultra-Bold';text-align:center;white-space:pre;fill:#ffffff;stroke-width:3.55827;stroke-linejoin:round"
       d="m 689.28064,405.61015 v -35.92532 h 11.00799 v 35.92532 z m -12.37333,-12.8 v -10.41066 h 35.83998 v 10.41066 z m 48.55474,22.95466 v -37.03465 h -8.36267 v -12.03199 q 4.18133,0 6.74133,-1.45067 2.56,-1.536 3.328,-5.80266 h 12.20266 v 56.31997 z"
       id="text33"
       transform="matrix(0.07707407,0,0,0.07173644,54.419935,51.335404)"
       aria-label="+1" /></g></svg>
